<svg width="1454" height="1447" xmlns="http://www.w3.org/2000/svg" xmlns:xlink="http://www.w3.org/1999/xlink" xml:space="preserve" overflow="hidden"><g transform="translate(-2976 -1193)"><text font-family="Times New Roman,Times New Roman_MSFontService,sans-serif" font-style="italic" font-weight="400" font-size="110" transform="matrix(1 0 0 1 3042.5 1513)">σ</text><text font-family="Times New Roman,Times New Roman_MSFontService,sans-serif" font-weight="400" font-size="73" transform="matrix(1 0 0 1 3096.93 1540)">u</text><text font-family="Times New Roman,Times New Roman_MSFontService,sans-serif" font-style="italic" font-weight="400" font-size="110" transform="matrix(1 0 0 1 3042.5 1714)">σ</text><text font-family="Times New Roman,Times New Roman_MSFontService,sans-serif" font-weight="400" font-size="73" transform="matrix(1 0 0 1 3096.93 1741)">y</text><text font-family="Times New Roman,Times New Roman_MSFontService,sans-serif" font-style="italic" font-weight="400" font-size="110" transform="matrix(1 0 0 1 3042.5 1832)">σ</text><text font-family="Times New Roman,Times New Roman_MSFontService,sans-serif" font-weight="400" font-size="73" transform="matrix(1 0 0 1 3096.93 1859)">f</text><text font-family="Times New Roman,Times New Roman_MSFontService,sans-serif" font-style="italic" font-weight="400" font-size="110" transform="matrix(1 0 0 1 4299.02 2431)">Δ</text><text font-family="Times New Roman,Times New Roman_MSFontService,sans-serif" font-style="italic" font-weight="400" font-size="110" transform="matrix(1 0 0 1 3153.07 2397)">ε</text><text font-family="Times New Roman,Times New Roman_MSFontService,sans-serif" font-weight="400" font-size="73" transform="matrix(1 0 0 1 3196.61 2424)">y </text><text font-family="Times New Roman,Times New Roman_MSFontService,sans-serif" font-style="italic" font-weight="400" font-size="110" transform="matrix(1 0 0 1 3433.4 2397)">ε</text><text font-family="Times New Roman,Times New Roman_MSFontService,sans-serif" font-weight="400" font-size="73" transform="matrix(1 0 0 1 3476.94 2424)">u </text><path d="M0 0 0.000360892 827.847" stroke="#BFBFBF" stroke-width="4.58333" stroke-linejoin="round" stroke-miterlimit="10" stroke-dasharray="18.3333 13.75" fill="#4472C4" fill-rule="evenodd" transform="matrix(1 0 0 -1 3467.5 2327.35)"/><path d="M3162.5 1791.5 4077.4 1791.5" stroke="#BFBFBF" stroke-width="4.58333" stroke-linejoin="round" stroke-miterlimit="10" stroke-dasharray="18.3333 13.75" fill="#4472C4" fill-rule="evenodd"/><path d="M3167.5 1499.5 3473.02 1499.5" stroke="#BFBFBF" stroke-width="4.58333" stroke-linejoin="round" stroke-miterlimit="10" stroke-dasharray="18.3333 13.75" fill="#4472C4" fill-rule="evenodd"/><path d="M3164.5 1720.5 3204.77 1720.5" stroke="#BFBFBF" stroke-width="4.58333" stroke-linejoin="round" stroke-miterlimit="10" stroke-dasharray="18.3333 13.75" fill="#4472C4" fill-rule="evenodd"/><path d="M0 0 0.000360892 592.991" stroke="#BFBFBF" stroke-width="4.58333" stroke-linejoin="round" stroke-miterlimit="10" stroke-dasharray="18.3333 13.75" fill="#4472C4" fill-rule="evenodd" transform="matrix(1 0 0 -1 3198.5 2325.49)"/><path d="M0 0 0.000360892 536.474" stroke="#BFBFBF" stroke-width="4.58333" stroke-linejoin="round" stroke-miterlimit="10" stroke-dasharray="18.3333 13.75" fill="#4472C4" fill-rule="evenodd" transform="matrix(1 0 0 -1 4080.5 2325.97)"/><path d="M3463 1493 4076.61 1792.95" stroke="#000000" stroke-width="13.75" stroke-miterlimit="8" fill="none" fill-rule="evenodd"/><path d="M0 0 265.624 226.037" stroke="#000000" stroke-width="13.75" stroke-miterlimit="8" fill="none" fill-rule="evenodd" transform="matrix(1 0 0 -1 3198 1720.04)"/><path d="M0 0 33.1007 607.664" stroke="#000000" stroke-width="13.75" stroke-miterlimit="8" fill="none" fill-rule="evenodd" transform="matrix(1 0 0 -1 3167 2322.66)"/><path d="M3170.51 2320.06 4302.89 2322.96 4302.87 2329.84 3170.49 2326.94ZM4298.35 2303.47 4344.13 2326.51 4298.24 2349.3Z"/><path d="M3.4375-1.19358e-06 3.43785 998.12-3.43715 998.12-3.4375 1.19358e-06ZM22.917 993.537 0.000360892 1039.37-22.9163 993.537Z" transform="matrix(1 0 0 -1 3164.5 2325.87)"/><path d="M3181.5 1713C3181.5 1702.23 3190.23 1693.5 3201 1693.5 3211.77 1693.5 3220.5 1702.23 3220.5 1713 3220.5 1723.77 3211.77 1732.5 3201 1732.5 3190.23 1732.5 3181.5 1723.77 3181.5 1713Z" stroke="#000000" stroke-width="3.4375" stroke-linejoin="round" stroke-miterlimit="10" fill="#FFFFFF" fill-rule="evenodd"/><path d="M4060.5 1793C4060.5 1782.23 4069.23 1773.5 4080 1773.5 4090.77 1773.5 4099.5 1782.23 4099.5 1793 4099.5 1803.77 4090.77 1812.5 4080 1812.5 4069.23 1812.5 4060.5 1803.77 4060.5 1793Z" stroke="#000000" stroke-width="3.4375" stroke-linejoin="round" stroke-miterlimit="10" fill="#FFFFFF" fill-rule="evenodd"/><path d="M3446.5 1492C3446.5 1481.23 3455.23 1472.5 3466 1472.5 3476.77 1472.5 3485.5 1481.23 3485.5 1492 3485.5 1502.77 3476.77 1511.5 3466 1511.5 3455.23 1511.5 3446.5 1502.77 3446.5 1492Z" stroke="#000000" stroke-width="3.4375" stroke-linejoin="round" stroke-miterlimit="10" fill="#FFFFFF" fill-rule="evenodd"/><text font-family="Times New Roman,Times New Roman_MSFontService,sans-serif" font-weight="400" font-size="110" transform="matrix(1 0 0 1 3059.73 2370)">0</text><text font-family="Times New Roman,Times New Roman_MSFontService,sans-serif" font-weight="400" font-size="110" transform="matrix(1 0 0 1 3328.29 2547)">Eng stress </text><text font-family="Times New Roman,Times New Roman_MSFontService,sans-serif" font-weight="400" font-size="110" transform="matrix(1 0 0 1 3804.96 2547)">-</text><text font-family="Times New Roman,Times New Roman_MSFontService,sans-serif" font-weight="400" font-size="110" transform="matrix(1 0 0 1 3869.12 2547)">strain</text><text font-family="Times New Roman,Times New Roman_MSFontService,sans-serif" font-style="italic" font-weight="400" font-size="110" transform="matrix(1 0 0 1 4040.12 2397)">ε</text><text font-family="Times New Roman,Times New Roman_MSFontService,sans-serif" font-weight="400" font-size="73" transform="matrix(1 0 0 1 4083.66 2424)">f </text><text font-family="Times New Roman,Times New Roman_MSFontService,sans-serif" font-style="italic" font-weight="400" font-size="110" transform="matrix(1 0 0 1 3048.43 1332)">σ</text><text font-family="Artifakt Element Heavy,Artifakt Element Heavy_MSFontService,sans-serif" font-weight="900" font-size="110" transform="matrix(1 0 0 1 3488.21 1363)">Bolt</text></g></svg>