<svg width="1424" height="1431" xmlns="http://www.w3.org/2000/svg" xmlns:xlink="http://www.w3.org/1999/xlink" xml:space="preserve" overflow="hidden"><g transform="translate(-1419 -1193)"><text font-family="Times New Roman,Times New Roman_MSFontService,sans-serif" font-style="italic" font-weight="400" font-size="110" transform="matrix(1 0 0 1 1501.35 1332)">σ</text><text font-family="Times New Roman,Times New Roman_MSFontService,sans-serif" font-style="italic" font-weight="400" font-size="110" transform="matrix(1 0 0 1 1485.72 1501)">σ</text><text font-family="Times New Roman,Times New Roman_MSFontService,sans-serif" font-weight="400" font-size="73" transform="matrix(1 0 0 1 1540.15 1528)">u</text><text font-family="Times New Roman,Times New Roman_MSFontService,sans-serif" font-style="italic" font-weight="400" font-size="110" transform="matrix(1 0 0 1 1485.29 1670)">σ</text><text font-family="Times New Roman,Times New Roman_MSFontService,sans-serif" font-weight="400" font-size="73" transform="matrix(1 0 0 1 1539.72 1697)">m</text><text font-family="Times New Roman,Times New Roman_MSFontService,sans-serif" font-style="italic" font-weight="400" font-size="110" transform="matrix(1 0 0 1 1485.72 1866)">σ</text><text font-family="Times New Roman,Times New Roman_MSFontService,sans-serif" font-weight="400" font-size="73" transform="matrix(1 0 0 1 1540.15 1893)">y</text><text font-family="Times New Roman,Times New Roman_MSFontService,sans-serif" font-style="italic" font-weight="400" font-size="110" transform="matrix(1 0 0 1 1641.32 2374)">ε</text><text font-family="Times New Roman,Times New Roman_MSFontService,sans-serif" font-weight="400" font-size="73" transform="matrix(1 0 0 1 1684.86 2401)">y</text><text font-family="Times New Roman,Times New Roman_MSFontService,sans-serif" font-style="italic" font-weight="400" font-size="110" transform="matrix(1 0 0 1 1741.95 2374)">ε</text><text font-family="Times New Roman,Times New Roman_MSFontService,sans-serif" font-weight="400" font-size="73" transform="matrix(1 0 0 1 1785.49 2401)">h</text><text font-family="Times New Roman,Times New Roman_MSFontService,sans-serif" font-style="italic" font-weight="400" font-size="110" transform="matrix(1 0 0 1 1870.85 2374)">ε</text><text font-family="Times New Roman,Times New Roman_MSFontService,sans-serif" font-weight="400" font-size="73" transform="matrix(1 0 0 1 1914.39 2401)">m</text><text font-family="Times New Roman,Times New Roman_MSFontService,sans-serif" font-style="italic" font-weight="400" font-size="110" transform="matrix(1 0 0 1 2596.15 2374)">ε</text><text font-family="Times New Roman,Times New Roman_MSFontService,sans-serif" font-weight="400" font-size="73" transform="matrix(1 0 0 1 2639.69 2401)">u</text><text font-family="Times New Roman,Times New Roman_MSFontService,sans-serif" font-style="italic" font-weight="400" font-size="110" transform="matrix(1 0 0 1 2732.48 2383)">ε</text><path d="M1614.5 1493.5 2632 1493.5" stroke="#BFBFBF" stroke-width="4.58333" stroke-linejoin="round" stroke-miterlimit="10" stroke-dasharray="18.3333 13.75" fill="#4472C4" fill-rule="evenodd"/><path d="M1614.5 1654.5 1900.16 1654.5" stroke="#BFBFBF" stroke-width="4.58333" stroke-linejoin="round" stroke-miterlimit="10" stroke-dasharray="18.3333 13.75" fill="#4472C4" fill-rule="evenodd"/><path d="M1614.5 1840.5 1683.32 1840.5" stroke="#BFBFBF" stroke-width="4.58333" stroke-linejoin="round" stroke-miterlimit="10" stroke-dasharray="18.3333 13.75" fill="#4472C4" fill-rule="evenodd"/><path d="M2645.5 1486.5 2645.5 2290.22" stroke="#BFBFBF" stroke-width="4.58333" stroke-linejoin="round" stroke-miterlimit="10" stroke-dasharray="18.3333 13.75" fill="#4472C4" fill-rule="evenodd"/><path d="M1899.5 1654.5 1899.5 2298.82" stroke="#BFBFBF" stroke-width="4.58333" stroke-linejoin="round" stroke-miterlimit="10" stroke-dasharray="18.3333 13.75" fill="#4472C4" fill-rule="evenodd"/><path d="M1749.5 1840.5 1749.5 2298.54" stroke="#BFBFBF" stroke-width="4.58333" stroke-linejoin="round" stroke-miterlimit="10" stroke-dasharray="18.3333 13.75" fill="#4472C4" fill-rule="evenodd"/><path d="M1684.5 1840.5 1684.5 2298.54" stroke="#BFBFBF" stroke-width="4.58333" stroke-linejoin="round" stroke-miterlimit="10" stroke-dasharray="18.3333 13.75" fill="#4472C4" fill-rule="evenodd"/><path d="M3.4375-1.19358e-06 3.43785 998.12-3.43715 998.12-3.4375 1.19358e-06ZM22.917 993.537 0.000360892 1039.37-22.9163 993.537Z" transform="matrix(1 0 0 -1 1614.5 2296.87)"/><path d="M1614.5 2295.06 2730.85 2295.06 2730.85 2301.94 1614.5 2301.94ZM2726.27 2275.58 2772.1 2298.5 2726.27 2321.42Z"/><path d="M0 0 68.8225 456.546" stroke="#000000" stroke-width="13.75" stroke-linecap="round" stroke-linejoin="round" stroke-miterlimit="10" fill="#4472C4" fill-rule="evenodd" transform="matrix(1 0 0 -1 1618 2293.55)"/><path d="M1687 1837 1751.31 1837" stroke="#000000" stroke-width="13.75" stroke-linecap="round" stroke-linejoin="round" stroke-miterlimit="10" fill="#4472C4" fill-rule="evenodd"/><path d="M0 0 151.211 184.865" stroke="#000000" stroke-width="13.75" stroke-linecap="round" stroke-linejoin="round" stroke-miterlimit="10" fill="#4472C4" fill-rule="evenodd" transform="matrix(1 0 0 -1 1755 1835.87)"/><path d="M0 0 729.891 158.287" stroke="#000000" stroke-width="13.75" stroke-linecap="round" stroke-linejoin="round" stroke-miterlimit="10" fill="#4472C4" fill-rule="evenodd" transform="matrix(1 0 0 -1 1906 1651.29)"/><path d="M2626.5 1487C2626.5 1476.23 2635.23 1467.5 2646 1467.5 2656.77 1467.5 2665.5 1476.23 2665.5 1487 2665.5 1497.77 2656.77 1506.5 2646 1506.5 2635.23 1506.5 2626.5 1497.77 2626.5 1487Z" stroke="#000000" stroke-width="3.4375" stroke-linejoin="round" stroke-miterlimit="10" fill="#FFFFFF" fill-rule="evenodd"/><path d="M1882.5 1652C1882.5 1641.23 1891.23 1632.5 1902 1632.5 1912.77 1632.5 1921.5 1641.23 1921.5 1652 1921.5 1662.77 1912.77 1671.5 1902 1671.5 1891.23 1671.5 1882.5 1662.77 1882.5 1652Z" stroke="#000000" stroke-width="3.4375" stroke-linejoin="round" stroke-miterlimit="10" fill="#FFFFFF" fill-rule="evenodd"/><path d="M1732.5 1834C1732.5 1823.23 1741.23 1814.5 1752 1814.5 1762.77 1814.5 1771.5 1823.23 1771.5 1834 1771.5 1844.77 1762.77 1853.5 1752 1853.5 1741.23 1853.5 1732.5 1844.77 1732.5 1834Z" stroke="#000000" stroke-width="3.4375" stroke-linejoin="round" stroke-miterlimit="10" fill="#FFFFFF" fill-rule="evenodd"/><path d="M1668.5 1838C1668.5 1827.23 1677.23 1818.5 1688 1818.5 1698.77 1818.5 1707.5 1827.23 1707.5 1838 1707.5 1848.77 1698.77 1857.5 1688 1857.5 1677.23 1857.5 1668.5 1848.77 1668.5 1838Z" stroke="#000000" stroke-width="3.4375" stroke-linejoin="round" stroke-miterlimit="10" fill="#FFFFFF" fill-rule="evenodd"/><text font-family="Times New Roman,Times New Roman_MSFontService,sans-serif" font-weight="400" font-size="110" transform="matrix(1 0 0 1 1519.49 2341)">0</text><text font-family="Times New Roman,Times New Roman_MSFontService,sans-serif" font-style="italic" font-weight="400" font-size="110" transform="matrix(1 0 0 1 1661.39 2079)">E</text><text font-family="Times New Roman,Times New Roman_MSFontService,sans-serif" font-style="italic" font-weight="400" font-size="110" transform="matrix(1 0 0 1 1851.08 1815)">E</text><text font-family="Times New Roman,Times New Roman_MSFontService,sans-serif" font-weight="400" font-size="73" transform="matrix(1 0 0 1 1918.11 1842)">h</text><text font-family="Times New Roman,Times New Roman_MSFontService,sans-serif" font-style="italic" font-weight="400" font-size="110" transform="matrix(1 0 0 1 2206.11 1677)">E</text><text font-family="Times New Roman,Times New Roman_MSFontService,sans-serif" font-weight="400" font-size="73" transform="matrix(1 0 0 1 2273.14 1704)">nk</text><text font-family="Times New Roman,Times New Roman_MSFontService,sans-serif" font-weight="400" font-size="110" transform="matrix(1 0 0 1 1789.02 2531)">True stress </text><text font-family="Times New Roman,Times New Roman_MSFontService,sans-serif" font-weight="400" font-size="110" transform="matrix(1 0 0 1 2292.18 2531)">-</text><text font-family="Times New Roman,Times New Roman_MSFontService,sans-serif" font-weight="400" font-size="110" transform="matrix(1 0 0 1 2356.35 2531)">strain</text><text font-family="Artifakt Element Heavy,Artifakt Element Heavy_MSFontService,sans-serif" font-weight="900" font-size="110" transform="matrix(1 0 0 1 1927.5 1363)">flange</text></g></svg>