<svg width="1433" height="1000" xmlns="http://www.w3.org/2000/svg" xmlns:xlink="http://www.w3.org/1999/xlink" xml:space="preserve" overflow="hidden"><g transform="translate(-86 -116)"><path d="M254.991 927.5 254.5 882.176 1491.5 586.5C1491.5 602.803 1491.5 619.105 1491.5 635.408L785.589 926.928 254.991 927.5Z" stroke="#0000FF" stroke-width="4.58333" stroke-miterlimit="8" fill="#FFF2CC" fill-rule="evenodd"/><path d="M263.5 879.5 964.18 587.5 1483.5 587.5 782.821 879.5Z" stroke="#0000FF" stroke-width="4.58333" stroke-miterlimit="8" fill="#FFF2CC" fill-rule="evenodd"/><path d="M783.5 879.5 784.445 927.528" stroke="#0000FF" stroke-width="4.58333" stroke-miterlimit="8" fill="#FFF2CC" fill-rule="evenodd"/><path d="M276.917 982.854 760.296 982.855 760.296 985.146 276.917 985.146ZM281.5 997.75 254 984 281.5 970.25ZM755.712 970.251 783.212 984.001 755.712 997.751Z"/><path d="M254 942 254 1000.44" stroke="#000000" stroke-width="2.29167" stroke-miterlimit="8" fill="none" fill-rule="evenodd"/><path d="M783 942 783 1000.44" stroke="#000000" stroke-width="2.29167" stroke-miterlimit="8" fill="none" fill-rule="evenodd"/><path d="M21.6117 7.7059 687.552 283.368 686.676 285.486 20.7352 9.82332ZM20.1501 23.2225 0 0 30.6681-2.1866ZM688.138 269.969 708.288 293.192 677.62 295.378Z" transform="matrix(1 0 0 -1 783 984.192)"/><path d="M1492 652 1492 710.438" stroke="#000000" stroke-width="2.29167" stroke-miterlimit="8" fill="none" fill-rule="evenodd"/><text font-family="Times New Roman,Times New Roman_MSFontService,sans-serif" font-style="italic" font-weight="400" font-size="73" transform="matrix(1 0 0 1 447.896 1055)">l</text><text font-family="Times New Roman,Times New Roman_MSFontService,sans-serif" font-weight="400" font-size="49" transform="matrix(1 0 0 1 468.521 1072)">f</text><text font-family="Times New Roman,Times New Roman_MSFontService,sans-serif" font-style="italic" font-weight="400" font-size="73" transform="matrix(0.925788 -0.378043 0.378043 0.925788 1185.14 893)">b</text><text font-family="Times New Roman,Times New Roman_MSFontService,sans-serif" font-weight="400" font-size="49" transform="matrix(0.925788 -0.378043 0.378043 0.925788 1225.51 895)">f</text><path d="M646.5 802.5C646.5 786.484 668.886 773.5 696.5 773.5 724.114 773.5 746.5 786.484 746.5 802.5 746.5 818.516 724.114 831.5 696.5 831.5 668.886 831.5 646.5 818.516 646.5 802.5Z" stroke="#0000FF" stroke-width="4.58333" stroke-miterlimit="8" fill="#FFFFFF" fill-rule="evenodd"/><path d="M206.146 893.75 206.146 913.802 203.854 913.802 203.854 893.75ZM195.833 898.333 205 880 214.167 898.333ZM214.167 909.219 205 927.552 195.833 909.219Z"/><path d="M189 880 242.281 880" stroke="#000000" stroke-width="2.29167" stroke-miterlimit="8" fill="none" fill-rule="evenodd"/><path d="M189 927 242.281 927" stroke="#000000" stroke-width="2.29167" stroke-miterlimit="8" fill="none" fill-rule="evenodd"/><text font-family="Times New Roman,Times New Roman_MSFontService,sans-serif" font-style="italic" font-weight="400" font-size="73" transform="matrix(1 0 0 1 130.863 913)">t</text><text font-family="Times New Roman,Times New Roman_MSFontService,sans-serif" font-weight="400" font-size="49" transform="matrix(1 0 0 1 151.488 930)">f</text><path d="M20.9873 9.27465 148.59 73.4629 147.56 75.5101 19.9575 11.3219ZM18.3879 24.6414 0 0 30.7458 0.074489ZM150.16 60.1434 168.548 84.7848 137.802 84.7103Z" transform="matrix(1 0 0 -1 522 878.785)"/><text font-family="Times New Roman,Times New Roman_MSFontService,sans-serif" font-style="italic" font-weight="400" font-size="73" transform="matrix(0.90633 -0.422571 0.422571 0.90633 577.543 836)">n</text><path d="M638.5 132.636 1152.77 132.636C1152.48 330.303 1152.19 527.969 1151.91 725.636L638.5 729.5 638.5 132.636Z" fill="#E7E6E6" fill-rule="evenodd"/><path d="M1152.77 132.636 1180.71 118.5C1181.42 319.373 1182.14 511.658 1182.86 712.531L1150.19 723.06C1151.05 526.252 1151.91 329.444 1152.77 132.636Z" fill="#BAB9B9" fill-rule="evenodd"/><path d="M638.5 132.636 666.44 118.5 1180.71 118.5 1152.77 132.636 638.5 132.636Z" fill="#ECEBEB" fill-rule="evenodd"/><path d="M638.5 132.636 666.44 118.5 1180.71 118.5C1180.78 316.801 1183.43 512.955 1183.5 711.256L1151.91 723.919 638.5 729.5 638.5 132.636ZM638.5 132.636 1152.77 132.636 1180.71 118.5M1152.77 132.636C1152.19 330.016 1151.62 527.397 1151.05 724.777" stroke="#0000FF" stroke-width="4.58333" stroke-miterlimit="8" fill="none" fill-rule="evenodd"/><path d="M610.5 734.075C617.75 719.694 628.839 705.31 636.09 690.929L1150.5 690.5C1142.61 703.169 1137.65 721.831 1129.76 734.5L610.5 734.075Z" stroke="#0000FF" stroke-width="4.58333" stroke-miterlimit="8" fill="#E2F0D9" fill-rule="evenodd"/><path d="M1185.92 709.5 1185.5 676.5 1213.5 697.322 1185.92 709.5Z" stroke="#0000FF" stroke-width="4.58333" stroke-miterlimit="8" fill="#E2F0D9" fill-rule="evenodd"/><path d="M1151.06 723.806C1150.91 713.843 1151.62 697.463 1151.48 687.5L1128.5 734.5 1151.06 723.806Z" stroke="#0000FF" stroke-width="4.58333" stroke-miterlimit="8" fill="#E2F0D9" fill-rule="evenodd"/><path d="M20.9873 9.27465 136.586 67.4245 135.556 69.4717 19.9575 11.3219ZM18.3879 24.6414 0 0 30.7458 0.0744735ZM138.156 54.105 156.544 78.7464 125.798 78.6719Z" transform="matrix(1 0 0 -1 687 797.746)"/><text font-family="Times New Roman,Times New Roman_MSFontService,sans-serif" font-style="italic" font-weight="400" font-size="73" transform="matrix(0.90633 -0.422571 0.422571 0.90633 741.587 754)">m</text><path d="M681 784 700.267 818.325" stroke="#000000" stroke-width="2.29167" stroke-miterlimit="8" fill="none" fill-rule="evenodd"/><text font-family="Artifakt Element Heavy,Artifakt Element Heavy_MSFontService,sans-serif" font-weight="900" font-size="83" transform="matrix(0.917328 -0.398132 0.398132 0.917328 324.557 825)">flange</text><text font-family="Artifakt Element Heavy,Artifakt Element Heavy_MSFontService,sans-serif" font-weight="900" font-size="83" transform="matrix(1 0 0 1 674.385 223)">web</text></g></svg>